# xmcd CD database file
#
# Track frame offsets:
#	180
#	12276
#	26423
#	39564
#	53098
#	66232
#	79479
#	92077
#	105162
#	120424
#	133155
#	146544
#	160352
#	175687
#	187615
#	200454
#	214225
#	228012
#
# Disc length: 3230 seconds
#
# Revision: 2
# Processed by: cddbd v1.5.1PL2 Copyright (c) Steve Scherf et al.
# Submitted via: CDex 1.51
#
DISCID=e70c9c12
DTITLE=Various Artist - Harmonica blues, Mississippi, Memphis, Chicago, 1927-1941
DYEAR=1995
DGENRE=Jazz-Blues
TTITLE0=Robert Cooksey - Shortnin bread
TTITLE1=De Ford Bailey - Muscle shoats blues
TTITLE2=De Ford Bailey - Pan american blues
TTITLE3=Robert Cooksey - Blue harmonica
TTITLE4=Will Shade and Memphis Jug Band - Kansas city blues
TTITLE5=El Watson - Bay rum blues
TTITLE6=Eddie Mapp - Riding the blinds
TTITLE7=Noah Lewis - Devil in the woodpile
TTITLE8=Blues birdhead - Mean low blues
TTITLE9=Jed Davenport - Same me some
TTITLE10=Jed Davenport - Beale street breakdown
TTITLE11=Jaybird Coleman - Man trouble blues n°2
TTITLE12=Alfred Lewis - Mississippi swamp moan
TTITLE13=Noah Lewis - Ticket agent blues
TTITLE14=Hammie Nixon and Son Bonds - Weary trouble blues
TTITLE15=Hammie Nixon and Son Bonds - Trouble trouble blues
TTITLE16=Jazz Gillum - Sarah Jane
TTITLE17=Will Shade and Minnie Wallace - Field mouse stomp
EXTD=YEAR: 1995
EXTT0=
EXTT1=
EXTT2=
EXTT3=
EXTT4=
EXTT5=
EXTT6=
EXTT7=
EXTT8=
EXTT9=
EXTT10=
EXTT11=
EXTT12=
EXTT13=
EXTT14=
EXTT15=
EXTT16=
EXTT17=
PLAYORDER=
